<svg version="1.1" xmlns="http://www.w3.org/2000/svg" viewBox="360 340 306 285">
<path d="M0 0 C18.09049514 -0.06971441 36.18094356 -0.12311997 54.27154446 -0.15543652 C62.67301978 -0.17084647 71.07440964 -0.19182235 79.47583008 -0.22631836 C86.80617033 -0.25640196 94.13644863 -0.27561756 101.46684891 -0.28226548 C105.3412987 -0.28614595 109.2155714 -0.2951399 113.08996391 -0.31719017 C149.36057082 -0.51520614 149.36057082 -0.51520614 166 6 C164.02833136 12.37442384 161.02678915 18.07802123 158 24 C156.38967896 23.57992676 156.38967896 23.57992676 154.74682617 23.15136719 C140.91946711 19.774757 127.49433891 19.33971226 113.3125 19.25 C111.03838958 19.22176228 108.76429961 19.19182438 106.49023438 19.16015625 C100.99357023 19.0872332 95.49702955 19.03505456 90 19 C90.01013972 19.72185801 90.02027945 20.44371601 90.03072643 21.1874485 C90.2749775 38.85331583 90.45631682 56.51874759 90.56993389 74.18593788 C90.62635694 82.73021178 90.70310082 91.27335021 90.82983398 99.81689453 C90.94040277 107.27437423 91.0106558 114.73103081 91.03497344 122.18930757 C91.04916206 126.1291523 91.08184273 130.06664502 91.16303062 134.00572586 C91.52512656 152.28401846 90.44372315 166.86947789 80.35297585 182.80161667 C78.25839519 186.20499686 76.54325029 189.77717132 74.8125 193.375 C73.875 195.25 72.9375 197.125 72 199 C71.67 199 71.34 199 71 199 C71 139.6 71 80.2 71 19 C47.57 19 24.14 19 0 19 C0 12.73 0 6.46 0 0 Z " fill="#030303" transform="translate(370,374)"/>
<path d="M0 0 C6.93 0 13.86 0 21 0 C19.452459 3.86885249 17.81854138 7.54143713 16 11.28125 C15.5450843 12.2181517 15.5450843 12.2181517 15.08097839 13.17398071 C14.05584997 15.28356615 13.02799378 17.39180951 12 19.5 C11.25556635 21.02976137 10.51118321 22.55954732 9.7668457 24.08935547 C1.82336703 40.4028414 -6.17827396 56.68792991 -14.17602539 72.97485352 C-21.54018878 87.97330255 -28.87483083 102.98582394 -36.18933105 118.00854492 C-41.1204357 128.13356341 -46.08601712 138.23842637 -51.15644836 148.29463196 C-54.19133243 154.33366358 -57.1267109 160.41507555 -60.02734375 166.51953125 C-65.57608642 178.15674779 -71.22605305 189.74287784 -76.90673828 201.31616211 C-78.50051973 204.56355898 -80.09217537 207.81199142 -81.68359375 211.06054688 C-87.20642552 222.32551003 -92.76058783 233.57346668 -98.40087891 244.78016663 C-101.7544787 251.45611324 -104.92733658 258.1903135 -108 265 C-115.26 265 -122.52 265 -130 265 C-128.68 262.03 -127.36 259.06 -126 256 C-125.60296875 255.10152344 -125.2059375 254.20304688 -124.796875 253.27734375 C-121.51777229 245.94830449 -117.93236131 238.78352389 -114.31793213 231.61651611 C-110.05320182 223.14966465 -105.81536428 214.66922151 -101.57032585 206.19248009 C-99.97480646 203.00660037 -98.37852201 199.82110868 -96.78051758 196.63647461 C-89.57957176 182.28436015 -82.4645383 167.8993559 -75.57202148 153.39575195 C-71.35129544 144.51953628 -67.01254696 135.70069836 -62.6875 126.875 C-61.73272171 124.92469434 -60.77805332 122.97433487 -59.82348633 121.02392578 C-57.85407944 117.00012902 -55.88421331 112.97655757 -53.9140625 108.953125 C-50.67869245 102.34484676 -47.44809827 95.73423921 -44.21806335 89.12335205 C-40.60904552 81.73694826 -36.99765596 74.35170684 -33.38520813 66.96697998 C-30.81052288 61.70330745 -28.23719109 56.4389776 -25.66552734 51.17382812 C-22.79675085 45.30046246 -19.92565025 39.42823773 -17.0531311 33.55670166 C-15.94356683 31.28769327 -14.83480868 29.01829048 -13.72689819 26.74847412 C-12.18206976 23.58385951 -10.63433478 20.42068212 -9.0859375 17.2578125 C-8.62962448 16.32132874 -8.17331146 15.38484497 -7.70317078 14.41998291 C-7.27309219 13.54291687 -6.84301361 12.66585083 -6.39990234 11.76220703 C-6.03101898 11.00747101 -5.66213562 10.25273499 -5.28207397 9.47512817 C-3.61892798 6.2643154 -1.79403273 3.13955727 0 0 Z " fill="#040404" transform="translate(564,350)"/>
<path d="M0 0 C30.69 0 61.38 0 93 0 C106.73487207 30.90346216 106.73487207 30.90346216 112.5625 45.0625 C113.82530905 48.1165129 115.09037437 51.16958944 116.35546875 54.22265625 C116.66284973 54.96536774 116.97023071 55.70807922 117.28692627 56.47329712 C119.28842627 61.30372135 121.31467694 66.12296675 123.36328125 70.93359375 C123.8749585 72.13556396 124.38663574 73.33753418 124.91381836 74.57592773 C125.86143172 76.79652546 126.81132626 79.01615163 127.76391602 81.23461914 C128.38737915 82.69629517 128.38737915 82.69629517 129.0234375 84.1875 C129.38356934 85.02667969 129.74370117 85.86585938 130.11474609 86.73046875 C131 89 131 89 132 93 C125.07 93 118.14 93 111 93 C93.33521725 51.95882142 93.33521725 51.95882142 86.64807129 35.91537476 C85.8869009 34.09102374 85.1207352 32.26875949 84.35449219 30.4465332 C83.90493164 29.36202881 83.45537109 28.27752441 82.9921875 27.16015625 C82.60401855 26.22824463 82.21584961 25.29633301 81.81591797 24.33618164 C81 22 81 22 81 19 C51.63 19 22.26 19 -8 19 C-5.82693253 12.48079759 -2.87970188 6.23935408 0 0 Z " fill="#060606" transform="translate(524,502)"/>
<path d="M0 0 C-8.5892285 23.03253604 -26.42416072 39.88195211 -48 51 C-48.92425781 51.47832275 -48.92425781 51.47832275 -49.8671875 51.96630859 C-72.63426913 63.47384026 -96.12830303 62.51273717 -121 62 C-120.20690534 57.46268162 -118.54985317 53.74907412 -116.4375 49.6875 C-116.10814453 49.04232422 -115.77878906 48.39714844 -115.43945312 47.73242188 C-114.63175745 46.15214772 -113.81662387 44.57567895 -113 43 C-112.25129639 42.99589111 -111.50259277 42.99178223 -110.73120117 42.98754883 C-88.03042005 42.77025825 -69.81824314 40.25730137 -50 29 C-49.15179687 28.52949219 -48.30359375 28.05898438 -47.4296875 27.57421875 C-38.4662356 22.12868077 -30.33820877 14.35363763 -26.125 4.75 C-21.32677954 -3.80334951 -8.39706446 -0.76805694 0 0 Z " fill="#050505" transform="translate(600,533)"/>
<path d="M0 0 C14.4081474 5.16149253 24.66428878 24.8542987 31 38 C32.97968591 42.5962284 34.59432823 47.19866622 36 52 C36.31839844 53.07121094 36.63679687 54.14242187 36.96484375 55.24609375 C39.65159874 65.75786787 39.27709151 76.22421915 39 87 C32.73 87 26.46 87 20 87 C19.9175 84.195 19.835 81.39 19.75 78.5 C18.63808353 54.86110303 9.30469886 34.26641693 -8 18 C-6.65150163 13.64029169 -4.95092154 9.68658562 -2.875 5.625 C-2.33617187 4.56539063 -1.79734375 3.50578125 -1.2421875 2.4140625 C-0.83226562 1.61742187 -0.42234375 0.82078125 0 0 Z " fill="#050505" transform="translate(572,404)"/>
</svg>
